<svg width="38" height="40" viewBox="0 0 38 40" fill="none" xmlns="http://www.w3.org/2000/svg">
<path d="M0.768984 13.4841L16.3834 23.3443C17.1908 23.8542 18.0949 24.1091 19.0005 24.1091C19.9046 24.1091 20.8102 23.8542 21.6177 23.3443L37.2305 13.4841C37.7071 13.1825 37.9984 12.6409 37.9984 12.056C37.9984 11.4711 37.7071 10.9279 37.2305 10.6279L21.6193 0.76613C20.0028 -0.255377 17.9983 -0.255377 16.3834 0.76613L0.768984 10.6263C0.292414 10.9279 0.00108895 11.4695 0.00108895 12.0544C0.00108895 12.6393 0.292414 13.1825 0.768984 13.4825V13.4841ZM18.0126 3.62402C18.6206 3.24074 19.379 3.24074 19.9885 3.62402L33.3388 12.056L19.9885 20.488C19.379 20.8713 18.6206 20.8713 18.011 20.488L4.66229 12.0544L18.0126 3.62402ZM38 33.3344C38 34.2559 37.2907 35.0008 36.4167 35.0008H33.2501V38.3336C33.2501 39.2551 32.5408 40 31.6668 40C30.7929 40 30.0836 39.2551 30.0836 38.3336V35.0008H26.917C26.043 35.0008 25.3337 34.2559 25.3337 33.3344C25.3337 32.4129 26.043 31.668 26.917 31.668H30.0836V28.3352C30.0836 27.4136 30.7929 26.6687 31.6668 26.6687C32.5408 26.6687 33.2501 27.4136 33.2501 28.3352V31.668H36.4167C37.2907 31.668 38 32.4129 38 33.3344ZM20.3574 38.8102C20.0598 39.3301 19.5357 39.6184 18.999 39.6184C18.7219 39.6184 18.4401 39.5417 18.1852 39.3801L0.768984 28.3835C0.0185051 27.9102 -0.223738 26.887 0.225916 26.0972C0.673986 25.3073 1.64613 25.0507 2.39819 25.5256L19.8144 36.5239C20.5648 36.9971 20.8071 38.0203 20.3574 38.8102ZM37.7736 18.4867C38.2232 19.2766 37.981 20.2997 37.2305 20.773L19.8144 31.7713C19.5626 31.9296 19.2824 32.0096 18.999 32.0096C18.7156 32.0096 18.4353 31.9296 18.1836 31.7713L0.768984 20.773C0.0185051 20.2997 -0.223738 19.2766 0.225916 18.4867C0.673986 17.6952 1.64613 17.4402 2.39819 17.9151L18.999 28.3985L35.5997 17.9151C36.3502 17.4419 37.3239 17.6968 37.7736 18.4867Z" fill="#03A740"/>
</svg>
