<svg width="19" height="19" viewBox="0 0 19 19" fill="none" xmlns="http://www.w3.org/2000/svg">
<path d="M5.54167 11.0833C5.54167 11.2933 5.45826 11.4947 5.30979 11.6431C5.16133 11.7916 4.95996 11.875 4.75 11.875H3.95833C3.74837 11.875 3.54701 11.7916 3.39854 11.6431C3.25007 11.4947 3.16667 11.2933 3.16667 11.0833C3.16667 10.8734 3.25007 10.672 3.39854 10.5235C3.54701 10.3751 3.74837 10.2917 3.95833 10.2917H4.75C4.95996 10.2917 5.16133 10.3751 5.30979 10.5235C5.45826 10.672 5.54167 10.8734 5.54167 11.0833ZM8.70833 10.2917H7.91667C7.7067 10.2917 7.50534 10.3751 7.35687 10.5235C7.20841 10.672 7.125 10.8734 7.125 11.0833C7.125 11.2933 7.20841 11.4947 7.35687 11.6431C7.50534 11.7916 7.7067 11.875 7.91667 11.875H8.70833C8.9183 11.875 9.11966 11.7916 9.26813 11.6431C9.41659 11.4947 9.5 11.2933 9.5 11.0833C9.5 10.8734 9.41659 10.672 9.26813 10.5235C9.11966 10.3751 8.9183 10.2917 8.70833 10.2917ZM4.75 13.4583H3.95833C3.74837 13.4583 3.54701 13.5417 3.39854 13.6902C3.25007 13.8387 3.16667 14.04 3.16667 14.25C3.16667 14.46 3.25007 14.6613 3.39854 14.8098C3.54701 14.9583 3.74837 15.0417 3.95833 15.0417H4.75C4.95996 15.0417 5.16133 14.9583 5.30979 14.8098C5.45826 14.6613 5.54167 14.46 5.54167 14.25C5.54167 14.04 5.45826 13.8387 5.30979 13.6902C5.16133 13.5417 4.95996 13.4583 4.75 13.4583ZM8.70833 13.4583H7.91667C7.7067 13.4583 7.50534 13.5417 7.35687 13.6902C7.20841 13.8387 7.125 14.04 7.125 14.25C7.125 14.46 7.20841 14.6613 7.35687 14.8098C7.50534 14.9583 7.7067 15.0417 7.91667 15.0417H8.70833C8.9183 15.0417 9.11966 14.9583 9.26813 14.8098C9.41659 14.6613 9.5 14.46 9.5 14.25C9.5 14.04 9.41659 13.8387 9.26813 13.6902C9.11966 13.5417 8.9183 13.4583 8.70833 13.4583ZM4.75 3.95833H3.95833C3.74837 3.95833 3.54701 4.04174 3.39854 4.19021C3.25007 4.33867 3.16667 4.54004 3.16667 4.75C3.16667 4.95996 3.25007 5.16133 3.39854 5.30979C3.54701 5.45826 3.74837 5.54167 3.95833 5.54167H4.75C4.95996 5.54167 5.16133 5.45826 5.30979 5.30979C5.45826 5.16133 5.54167 4.95996 5.54167 4.75C5.54167 4.54004 5.45826 4.33867 5.30979 4.19021C5.16133 4.04174 4.95996 3.95833 4.75 3.95833ZM8.70833 3.95833H7.91667C7.7067 3.95833 7.50534 4.04174 7.35687 4.19021C7.20841 4.33867 7.125 4.54004 7.125 4.75C7.125 4.95996 7.20841 5.16133 7.35687 5.30979C7.50534 5.45826 7.7067 5.54167 7.91667 5.54167H8.70833C8.9183 5.54167 9.11966 5.45826 9.26813 5.30979C9.41659 5.16133 9.5 4.95996 9.5 4.75C9.5 4.54004 9.41659 4.33867 9.26813 4.19021C9.11966 4.04174 8.9183 3.95833 8.70833 3.95833ZM4.75 7.125H3.95833C3.74837 7.125 3.54701 7.20841 3.39854 7.35687C3.25007 7.50534 3.16667 7.7067 3.16667 7.91667C3.16667 8.12663 3.25007 8.32799 3.39854 8.47646C3.54701 8.62493 3.74837 8.70833 3.95833 8.70833H4.75C4.95996 8.70833 5.16133 8.62493 5.30979 8.47646C5.45826 8.32799 5.54167 8.12663 5.54167 7.91667C5.54167 7.7067 5.45826 7.50534 5.30979 7.35687C5.16133 7.20841 4.95996 7.125 4.75 7.125ZM8.70833 7.125H7.91667C7.7067 7.125 7.50534 7.20841 7.35687 7.35687C7.20841 7.50534 7.125 7.7067 7.125 7.91667C7.125 8.12663 7.20841 8.32799 7.35687 8.47646C7.50534 8.62493 7.7067 8.70833 7.91667 8.70833H8.70833C8.9183 8.70833 9.11966 8.62493 9.26813 8.47646C9.41659 8.32799 9.5 8.12663 9.5 7.91667C9.5 7.7067 9.41659 7.50534 9.26813 7.35687C9.11966 7.20841 8.9183 7.125 8.70833 7.125ZM19 7.91667V15.0417C18.9987 16.0911 18.5813 17.0972 17.8392 17.8392C17.0972 18.5813 16.0911 18.9987 15.0417 19H3.95833C2.9089 18.9987 1.90282 18.5813 1.16076 17.8392C0.418698 17.0972 0.00125705 16.0911 0 15.0417L0 3.95833C0.00125705 2.9089 0.418698 1.90282 1.16076 1.16076C1.90282 0.418698 2.9089 0.00125705 3.95833 0L8.70833 0C9.75776 0.00125705 10.7639 0.418698 11.5059 1.16076C12.248 1.90282 12.6654 2.9089 12.6667 3.95833H15.0417C16.0911 3.95959 17.0972 4.37703 17.8392 5.11909C18.5813 5.86115 18.9987 6.86724 19 7.91667ZM3.95833 17.4167H11.0833V3.95833C11.0833 3.32844 10.8331 2.72435 10.3877 2.27895C9.94231 1.83356 9.33822 1.58333 8.70833 1.58333H3.95833C3.32844 1.58333 2.72435 1.83356 2.27895 2.27895C1.83356 2.72435 1.58333 3.32844 1.58333 3.95833V15.0417C1.58333 15.6716 1.83356 16.2756 2.27895 16.721C2.72435 17.1664 3.32844 17.4167 3.95833 17.4167ZM17.4167 7.91667C17.4167 7.28678 17.1664 6.68269 16.721 6.23729C16.2756 5.79189 15.6716 5.54167 15.0417 5.54167H12.6667V17.4167H15.0417C15.6716 17.4167 16.2756 17.1664 16.721 16.721C17.1664 16.2756 17.4167 15.6716 17.4167 15.0417V7.91667ZM15.0417 10.2917C14.8851 10.2917 14.732 10.3381 14.6018 10.4251C14.4717 10.5121 14.3702 10.6357 14.3103 10.7804C14.2503 10.925 14.2347 11.0842 14.2652 11.2378C14.2958 11.3913 14.3712 11.5324 14.4819 11.6431C14.5926 11.7538 14.7337 11.8292 14.8872 11.8598C15.0408 11.8903 15.2 11.8747 15.3446 11.8147C15.4893 11.7548 15.6129 11.6533 15.6999 11.5232C15.7869 11.393 15.8333 11.2399 15.8333 11.0833C15.8333 10.8734 15.7499 10.672 15.6015 10.5235C15.453 10.3751 15.2516 10.2917 15.0417 10.2917ZM15.0417 13.4583C14.8851 13.4583 14.732 13.5048 14.6018 13.5918C14.4717 13.6787 14.3702 13.8024 14.3103 13.947C14.2503 14.0917 14.2347 14.2509 14.2652 14.4044C14.2958 14.558 14.3712 14.6991 14.4819 14.8098C14.5926 14.9205 14.7337 14.9959 14.8872 15.0265C15.0408 15.057 15.2 15.0413 15.3446 14.9814C15.4893 14.9215 15.6129 14.82 15.6999 14.6898C15.7869 14.5596 15.8333 14.4066 15.8333 14.25C15.8333 14.04 15.7499 13.8387 15.6015 13.6902C15.453 13.5417 15.2516 13.4583 15.0417 13.4583ZM15.0417 7.125C14.8851 7.125 14.732 7.17143 14.6018 7.25842C14.4717 7.34541 14.3702 7.46905 14.3103 7.61371C14.2503 7.75837 14.2347 7.91755 14.2652 8.07111C14.2958 8.22468 14.3712 8.36574 14.4819 8.47646C14.5926 8.58718 14.7337 8.66258 14.8872 8.69312C15.0408 8.72367 15.2 8.70799 15.3446 8.64807C15.4893 8.58815 15.6129 8.48668 15.6999 8.35649C15.7869 8.22631 15.8333 8.07324 15.8333 7.91667C15.8333 7.7067 15.7499 7.50534 15.6015 7.35687C15.453 7.20841 15.2516 7.125 15.0417 7.125Z" fill="black"/>
</svg>
