<svg width="118" height="118" viewBox="0 0 118 118" fill="none" xmlns="http://www.w3.org/2000/svg">
<circle cx="59" cy="59" r="59" fill="#F5F5F5"/>
<path d="M49 63C49 63.5304 48.7893 64.0391 48.4142 64.4142C48.0391 64.7893 47.5304 65 47 65H45C44.4696 65 43.9609 64.7893 43.5858 64.4142C43.2107 64.0391 43 63.5304 43 63C43 62.4696 43.2107 61.9609 43.5858 61.5858C43.9609 61.2107 44.4696 61 45 61H47C47.5304 61 48.0391 61.2107 48.4142 61.5858C48.7893 61.9609 49 62.4696 49 63ZM57 61H55C54.4696 61 53.9609 61.2107 53.5858 61.5858C53.2107 61.9609 53 62.4696 53 63C53 63.5304 53.2107 64.0391 53.5858 64.4142C53.9609 64.7893 54.4696 65 55 65H57C57.5304 65 58.0391 64.7893 58.4142 64.4142C58.7893 64.0391 59 63.5304 59 63C59 62.4696 58.7893 61.9609 58.4142 61.5858C58.0391 61.2107 57.5304 61 57 61ZM47 69H45C44.4696 69 43.9609 69.2107 43.5858 69.5858C43.2107 69.9609 43 70.4696 43 71C43 71.5304 43.2107 72.0391 43.5858 72.4142C43.9609 72.7893 44.4696 73 45 73H47C47.5304 73 48.0391 72.7893 48.4142 72.4142C48.7893 72.0391 49 71.5304 49 71C49 70.4696 48.7893 69.9609 48.4142 69.5858C48.0391 69.2107 47.5304 69 47 69ZM57 69H55C54.4696 69 53.9609 69.2107 53.5858 69.5858C53.2107 69.9609 53 70.4696 53 71C53 71.5304 53.2107 72.0391 53.5858 72.4142C53.9609 72.7893 54.4696 73 55 73H57C57.5304 73 58.0391 72.7893 58.4142 72.4142C58.7893 72.0391 59 71.5304 59 71C59 70.4696 58.7893 69.9609 58.4142 69.5858C58.0391 69.2107 57.5304 69 57 69ZM47 45H45C44.4696 45 43.9609 45.2107 43.5858 45.5858C43.2107 45.9609 43 46.4696 43 47C43 47.5304 43.2107 48.0391 43.5858 48.4142C43.9609 48.7893 44.4696 49 45 49H47C47.5304 49 48.0391 48.7893 48.4142 48.4142C48.7893 48.0391 49 47.5304 49 47C49 46.4696 48.7893 45.9609 48.4142 45.5858C48.0391 45.2107 47.5304 45 47 45ZM57 45H55C54.4696 45 53.9609 45.2107 53.5858 45.5858C53.2107 45.9609 53 46.4696 53 47C53 47.5304 53.2107 48.0391 53.5858 48.4142C53.9609 48.7893 54.4696 49 55 49H57C57.5304 49 58.0391 48.7893 58.4142 48.4142C58.7893 48.0391 59 47.5304 59 47C59 46.4696 58.7893 45.9609 58.4142 45.5858C58.0391 45.2107 57.5304 45 57 45ZM47 53H45C44.4696 53 43.9609 53.2107 43.5858 53.5858C43.2107 53.9609 43 54.4696 43 55C43 55.5304 43.2107 56.0391 43.5858 56.4142C43.9609 56.7893 44.4696 57 45 57H47C47.5304 57 48.0391 56.7893 48.4142 56.4142C48.7893 56.0391 49 55.5304 49 55C49 54.4696 48.7893 53.9609 48.4142 53.5858C48.0391 53.2107 47.5304 53 47 53ZM57 53H55C54.4696 53 53.9609 53.2107 53.5858 53.5858C53.2107 53.9609 53 54.4696 53 55C53 55.5304 53.2107 56.0391 53.5858 56.4142C53.9609 56.7893 54.4696 57 55 57H57C57.5304 57 58.0391 56.7893 58.4142 56.4142C58.7893 56.0391 59 55.5304 59 55C59 54.4696 58.7893 53.9609 58.4142 53.5858C58.0391 53.2107 57.5304 53 57 53ZM83 55V73C82.9968 75.6512 81.9422 78.1929 80.0676 80.0676C78.1929 81.9422 75.6512 82.9968 73 83H45C42.3488 82.9968 39.8071 81.9422 37.9324 80.0676C36.0578 78.1929 35.0032 75.6512 35 73V45C35.0032 42.3488 36.0578 39.8071 37.9324 37.9324C39.8071 36.0578 42.3488 35.0032 45 35H57C59.6512 35.0032 62.1929 36.0578 64.0676 37.9324C65.9422 39.8071 66.9968 42.3488 67 45H73C75.6512 45.0032 78.1929 46.0578 80.0676 47.9324C81.9422 49.8071 82.9968 52.3488 83 55ZM45 79H63V45C63 43.4087 62.3679 41.8826 61.2426 40.7574C60.1174 39.6321 58.5913 39 57 39H45C43.4087 39 41.8826 39.6321 40.7574 40.7574C39.6321 41.8826 39 43.4087 39 45V73C39 74.5913 39.6321 76.1174 40.7574 77.2426C41.8826 78.3679 43.4087 79 45 79ZM79 55C79 53.4087 78.3679 51.8826 77.2426 50.7574C76.1174 49.6321 74.5913 49 73 49H67V79H73C74.5913 79 76.1174 78.3679 77.2426 77.2426C78.3679 76.1174 79 74.5913 79 73V55ZM73 61C72.6044 61 72.2178 61.1173 71.8889 61.3371C71.56 61.5568 71.3036 61.8692 71.1522 62.2346C71.0009 62.6001 70.9613 63.0022 71.0384 63.3902C71.1156 63.7781 71.3061 64.1345 71.5858 64.4142C71.8655 64.6939 72.2219 64.8844 72.6098 64.9616C72.9978 65.0387 73.3999 64.9991 73.7654 64.8478C74.1308 64.6964 74.4432 64.44 74.6629 64.1111C74.8827 63.7822 75 63.3956 75 63C75 62.4696 74.7893 61.9609 74.4142 61.5858C74.0391 61.2107 73.5304 61 73 61ZM73 69C72.6044 69 72.2178 69.1173 71.8889 69.3371C71.56 69.5568 71.3036 69.8692 71.1522 70.2346C71.0009 70.6001 70.9613 71.0022 71.0384 71.3902C71.1156 71.7781 71.3061 72.1345 71.5858 72.4142C71.8655 72.6939 72.2219 72.8844 72.6098 72.9616C72.9978 73.0387 73.3999 72.9991 73.7654 72.8478C74.1308 72.6964 74.4432 72.44 74.6629 72.1111C74.8827 71.7822 75 71.3956 75 71C75 70.4696 74.7893 69.9609 74.4142 69.5858C74.0391 69.2107 73.5304 69 73 69ZM73 53C72.6044 53 72.2178 53.1173 71.8889 53.3371C71.56 53.5568 71.3036 53.8692 71.1522 54.2346C71.0009 54.6001 70.9613 55.0022 71.0384 55.3902C71.1156 55.7781 71.3061 56.1345 71.5858 56.4142C71.8655 56.6939 72.2219 56.8844 72.6098 56.9616C72.9978 57.0387 73.3999 56.9991 73.7654 56.8478C74.1308 56.6964 74.4432 56.44 74.6629 56.1111C74.8827 55.7822 75 55.3956 75 55C75 54.4696 74.7893 53.9609 74.4142 53.5858C74.0391 53.2107 73.5304 53 73 53Z" fill="black"/>
</svg>
