<svg width="14" height="14" viewBox="0 0 14 14" fill="none" xmlns="http://www.w3.org/2000/svg">
<path d="M13.4167 6H0.583333C0.261167 6 0 6.44772 0 7C0 7.55228 0.261167 8 0.583333 8H13.4167C13.7388 8 14 7.55228 14 7C14 6.44772 13.7388 6 13.4167 6Z" fill="#585858"/>
<path d="M13.4167 0H0.583333C0.261167 0 0 0.447715 0 1C0 1.55228 0.261167 2 0.583333 2H13.4167C13.7388 2 14 1.55228 14 1C14 0.447715 13.7388 0 13.4167 0Z" fill="#585858"/>
<path d="M13.4167 12H0.583333C0.261167 12 0 12.4477 0 13C0 13.5523 0.261167 14 0.583333 14H13.4167C13.7388 14 14 13.5523 14 13C14 12.4477 13.7388 12 13.4167 12Z" fill="#585858"/>
</svg>
