<svg width="18" height="18" viewBox="0 0 18 18" fill="none" xmlns="http://www.w3.org/2000/svg">
<path d="M14.25 0H3.75C2.7558 0.00119089 1.80267 0.396661 1.09966 1.09966C0.396661 1.80267 0.00119089 2.7558 0 3.75L0 14.25C0.00119089 15.2442 0.396661 16.1973 1.09966 16.9003C1.80267 17.6033 2.7558 17.9988 3.75 18H14.25C15.2442 17.9988 16.1973 17.6033 16.9003 16.9003C17.6033 16.1973 17.9988 15.2442 18 14.25V3.75C17.9988 2.7558 17.6033 1.80267 16.9003 1.09966C16.1973 0.396661 15.2442 0.00119089 14.25 0ZM16.5 14.25C16.5 14.8467 16.2629 15.419 15.841 15.841C15.419 16.2629 14.8467 16.5 14.25 16.5H3.75C3.15326 16.5 2.58097 16.2629 2.15901 15.841C1.73705 15.419 1.5 14.8467 1.5 14.25V3.75C1.5 3.15326 1.73705 2.58097 2.15901 2.15901C2.58097 1.73705 3.15326 1.5 3.75 1.5H14.25C14.8467 1.5 15.419 1.73705 15.841 2.15901C16.2629 2.58097 16.5 3.15326 16.5 3.75V14.25Z" fill="#585858"/>
<path d="M7.07037 11.6141L4.23489 8.89838C4.09921 8.76848 3.91522 8.6955 3.72337 8.6955C3.53151 8.6955 3.34752 8.76848 3.21184 8.89838C3.0762 9.02833 3 9.20455 3 9.3883C3 9.57204 3.0762 9.74827 3.21184 9.87821L6.04731 12.5939C6.18169 12.7226 6.34124 12.8248 6.51684 12.8945C6.69244 12.9641 6.88066 13 7.07073 13C7.26081 13 7.44903 12.9641 7.62463 12.8945C7.80023 12.8248 7.95978 12.7226 8.09415 12.5939L14.7882 6.18272C14.9238 6.05277 15 5.87655 15 5.6928C15 5.50906 14.9238 5.33283 14.7882 5.20289C14.6525 5.07298 14.4685 5 14.2766 5C14.0848 5 13.9008 5.07298 13.7651 5.20289L7.07037 11.6141Z" fill="#585858"/>
</svg>
