<svg width="19" height="19" viewBox="0 0 19 19" fill="none" xmlns="http://www.w3.org/2000/svg">
<path d="M9.5 19C4.26154 19 0 14.7385 0 9.5C0 4.26154 4.26154 0 9.5 0C14.7385 0 19 4.26154 19 9.5C19 14.7385 14.7385 19 9.5 19ZM9.5 1.58333C5.13475 1.58333 1.58333 5.13475 1.58333 9.5C1.58333 13.8653 5.13475 17.4167 9.5 17.4167C13.8653 17.4167 17.4167 13.8653 17.4167 9.5C17.4167 5.13475 13.8653 1.58333 9.5 1.58333ZM13.4583 9.5C13.4583 9.06221 13.1045 8.70833 12.6667 8.70833H10.2917V4.75C10.2917 4.31221 9.937 3.95833 9.5 3.95833C9.063 3.95833 8.70833 4.31221 8.70833 4.75V9.5C8.70833 9.93779 9.063 10.2917 9.5 10.2917H12.6667C13.1045 10.2917 13.4583 9.93779 13.4583 9.5Z" fill="#585858"/>
</svg>
