<svg width="33" height="44" viewBox="0 0 33 44" fill="none" xmlns="http://www.w3.org/2000/svg">
<path d="M30.3141 5.7237L27.2781 2.68403C26.4287 1.83027 25.4184 1.15346 24.3056 0.69275C23.1929 0.232044 21.9998 -0.00340265 20.7955 3.71533e-05H9.16666C6.7364 0.00294822 4.40652 0.969653 2.68807 2.6881C0.969616 4.40656 0.00291107 6.73644 0 9.1667V34.8333C0.00291107 37.2636 0.969616 39.5935 2.68807 41.3119C4.40652 43.0304 6.7364 43.9971 9.16666 44H23.8333C26.2636 43.9971 28.5935 43.0304 30.3119 41.3119C32.0304 39.5935 32.9971 37.2636 33 34.8333V12.2045C33.0029 11.0004 32.7671 9.80757 32.3061 8.69515C31.845 7.58273 31.168 6.57277 30.3141 5.7237ZM27.7218 8.31603C27.9819 8.57512 28.2147 8.86016 28.4166 9.1667H23.8333V4.58337C24.1394 4.78745 24.4249 5.02077 24.6858 5.28003L27.7218 8.31603ZM29.3333 34.8333C29.3333 36.292 28.7538 37.691 27.7224 38.7224C26.6909 39.7539 25.292 40.3333 23.8333 40.3333H9.16666C7.70797 40.3333 6.30902 39.7539 5.27758 38.7224C4.24613 37.691 3.66666 36.292 3.66666 34.8333V9.1667C3.66666 7.70801 4.24613 6.30906 5.27758 5.27761C6.30902 4.24616 7.70797 3.6667 9.16666 3.6667H20.1667V9.1667C20.1667 10.1392 20.553 11.0718 21.2406 11.7594C21.9282 12.4471 22.8609 12.8334 23.8333 12.8334H29.3333V34.8333ZM23.8333 16.5C24.3195 16.5 24.7859 16.6932 25.1297 17.037C25.4735 17.3808 25.6666 17.8471 25.6666 18.3334C25.6666 18.8196 25.4735 19.2859 25.1297 19.6297C24.7859 19.9735 24.3195 20.1667 23.8333 20.1667H9.16666C8.68043 20.1667 8.21411 19.9735 7.8703 19.6297C7.52648 19.2859 7.33333 18.8196 7.33333 18.3334C7.33333 17.8471 7.52648 17.3808 7.8703 17.037C8.21411 16.6932 8.68043 16.5 9.16666 16.5H23.8333ZM25.6666 25.6667C25.6666 26.1529 25.4735 26.6192 25.1297 26.963C24.7859 27.3069 24.3195 27.5 23.8333 27.5H9.16666C8.68043 27.5 8.21411 27.3069 7.8703 26.963C7.52648 26.6192 7.33333 26.1529 7.33333 25.6667C7.33333 25.1805 7.52648 24.7141 7.8703 24.3703C8.21411 24.0265 8.68043 23.8333 9.16666 23.8333H23.8333C24.3195 23.8333 24.7859 24.0265 25.1297 24.3703C25.4735 24.7141 25.6666 25.1805 25.6666 25.6667ZM25.3146 31.9238C25.5996 32.3159 25.7178 32.8049 25.6432 33.2838C25.5687 33.7627 25.3075 34.1926 24.9168 34.4795C23.0593 35.8031 20.8593 36.5625 18.5808 36.6667C17.2496 36.6603 15.9588 36.2085 14.9142 35.3833C14.3128 34.9708 14.0837 34.8333 13.6308 34.8333C12.4051 35.023 11.2486 35.5242 10.2722 36.289C9.88486 36.5651 9.40543 36.6799 8.93509 36.6091C8.46476 36.5383 8.04035 36.2875 7.75148 35.9096C7.46261 35.5318 7.3319 35.0564 7.38695 34.584C7.44199 34.1115 7.67849 33.679 8.04649 33.3777C9.66199 32.1236 11.6018 31.3565 13.6382 31.1667C14.8594 31.1862 16.04 31.6083 16.9968 32.3675C17.4329 32.7598 17.9945 32.984 18.5808 33C20.0799 32.8877 21.5214 32.3755 22.7553 31.5168C23.1488 31.2317 23.6393 31.1143 24.1192 31.1906C24.5991 31.267 25.0291 31.5307 25.3146 31.9238Z" fill="#2F81FF"/>
</svg>
