<svg width="20" height="20" viewBox="0 0 20 20" fill="none" xmlns="http://www.w3.org/2000/svg">
<path d="M8.12389 15.2595C8.37225 15.4943 8.66715 15.6805 8.99173 15.8076C9.31632 15.9346 9.66423 16 10.0156 16C10.3669 16 10.7148 15.9346 11.0394 15.8076C11.364 15.6805 11.6589 15.4943 11.9073 15.2595L14.7698 12.5557C14.9233 12.3954 15.0056 12.1855 14.9997 11.9694C14.9938 11.7533 14.9002 11.5476 14.7382 11.3949C14.5762 11.2423 14.3583 11.1543 14.1295 11.1492C13.9007 11.1441 13.6787 11.2223 13.5092 11.3676L10.9008 13.8323L10.907 0.842045C10.907 0.618721 10.8131 0.404543 10.6459 0.246629C10.4788 0.0887152 10.252 0 10.0156 0C9.77915 0 9.5524 0.0887152 9.38522 0.246629C9.21803 0.404543 9.12411 0.618721 9.12411 0.842045L9.11609 13.8163L6.52192 11.3676C6.35464 11.2097 6.12781 11.1211 5.89133 11.1211C5.65485 11.1212 5.42809 11.21 5.26094 11.368C5.09378 11.526 4.99992 11.7403 5 11.9637C5.00008 12.187 5.0941 12.4012 5.26138 12.5591L8.12389 15.2595Z" fill="#585858"/>
<path d="M19.1667 13C18.9457 13 18.7337 13.0922 18.5774 13.2563C18.4211 13.4204 18.3333 13.6429 18.3333 13.875V17.375C18.3333 17.6071 18.2455 17.8296 18.0893 17.9937C17.933 18.1578 17.721 18.25 17.5 18.25H2.5C2.27899 18.25 2.06702 18.1578 1.91074 17.9937C1.75446 17.8296 1.66667 17.6071 1.66667 17.375V13.875C1.66667 13.6429 1.57887 13.4204 1.42259 13.2563C1.26631 13.0922 1.05435 13 0.833333 13C0.61232 13 0.400358 13.0922 0.244078 13.2563C0.0877974 13.4204 0 13.6429 0 13.875L0 17.375C0 18.0712 0.263392 18.7389 0.732233 19.2312C1.20107 19.7234 1.83696 20 2.5 20H17.5C18.163 20 18.7989 19.7234 19.2678 19.2312C19.7366 18.7389 20 18.0712 20 17.375V13.875C20 13.6429 19.9122 13.4204 19.7559 13.2563C19.5996 13.0922 19.3877 13 19.1667 13Z" fill="#585858"/>
</svg>
