<svg width="18" height="18" viewBox="0 0 18 18" fill="none" xmlns="http://www.w3.org/2000/svg">
<path d="M17.1403 6.97122L14.2832 4.20051C14.1443 4.0704 13.9582 3.9984 13.7651 4.00003C13.572 4.00165 13.3872 4.07678 13.2507 4.20921C13.1141 4.34164 13.0366 4.5208 13.0349 4.70808C13.0333 4.89536 13.1075 5.07579 13.2417 5.21051L16.0988 7.98122C16.1837 8.06517 16.2579 8.1587 16.3198 8.25979C16.3087 8.25979 16.2999 8.25408 16.2889 8.25408L4.73657 8.27694C4.54122 8.27694 4.35387 8.35219 4.21574 8.48615C4.0776 8.6201 4 8.80178 4 8.99122C4 9.18066 4.0776 9.36234 4.21574 9.4963C4.35387 9.63025 4.54122 9.70551 4.73657 9.70551L16.2844 9.68265C16.3051 9.68265 16.322 9.67265 16.3419 9.67122C16.2766 9.79205 16.1937 9.90318 16.0959 10.0012L13.2387 12.7719C13.1684 12.8378 13.1123 12.9166 13.0737 13.0038C13.0351 13.0909 13.0147 13.1847 13.0139 13.2795C13.013 13.3743 13.0317 13.4684 13.0687 13.5562C13.1058 13.644 13.1604 13.7237 13.2296 13.7908C13.2988 13.8579 13.381 13.9109 13.4715 13.9468C13.562 13.9827 13.659 14.0008 13.7568 14C13.8546 13.9991 13.9513 13.9794 14.0412 13.942C14.131 13.9046 14.2123 13.8502 14.2802 13.7819L17.1374 11.0112C17.6897 10.4754 18 9.74883 18 8.99122C18 8.23361 17.6897 7.50702 17.1374 6.97122H17.1403Z" fill="white"/>
<path d="M5.25 16.5H3.75C3.15326 16.5 2.58097 16.2629 2.15901 15.841C1.73705 15.419 1.5 14.8467 1.5 14.25V3.75C1.5 3.15326 1.73705 2.58097 2.15901 2.15901C2.58097 1.73705 3.15326 1.5 3.75 1.5H5.25C5.44891 1.5 5.63968 1.42098 5.78033 1.28033C5.92098 1.13968 6 0.948912 6 0.75C6 0.551088 5.92098 0.360322 5.78033 0.21967C5.63968 0.0790176 5.44891 0 5.25 0L3.75 0C2.7558 0.00119089 1.80267 0.396661 1.09966 1.09966C0.396661 1.80267 0.00119089 2.7558 0 3.75L0 14.25C0.00119089 15.2442 0.396661 16.1973 1.09966 16.9003C1.80267 17.6033 2.7558 17.9988 3.75 18H5.25C5.44891 18 5.63968 17.921 5.78033 17.7803C5.92098 17.6397 6 17.4489 6 17.25C6 17.0511 5.92098 16.8603 5.78033 16.7197C5.63968 16.579 5.44891 16.5 5.25 16.5Z" fill="white"/>
</svg>
