<svg width="19" height="16" viewBox="0 0 19 16" fill="none" xmlns="http://www.w3.org/2000/svg">
<path d="M2.54688 14.75L16.8698 1" stroke="#585858" stroke-width="1.5" stroke-linecap="round" stroke-linejoin="round"/>
<path d="M7.30469 13.2609C8.04641 13.4925 8.81935 13.6084 9.59635 13.6047C12.7283 13.6582 15.9061 11.4582 17.8616 9.29635C18.0726 9.06434 18.1895 8.76202 18.1895 8.44844C18.1895 8.13486 18.0726 7.83254 17.8616 7.60052C17.1545 6.81896 16.3686 6.11244 15.5165 5.49219" stroke="#585858" stroke-width="1.5" stroke-linecap="round" stroke-linejoin="round"/>
<path d="M13.4813 4.26018C12.2792 3.63653 10.9473 3.30421 9.59312 3.29004C6.53757 3.23657 3.32923 5.39073 1.32785 7.59837C1.11689 7.83039 1 8.13271 1 8.44629C1 8.75987 1.11689 9.06219 1.32785 9.2942C2.41248 10.5067 3.68382 11.5382 5.09382 12.3498" stroke="#585858" stroke-width="1.5" stroke-linecap="round" stroke-linejoin="round"/>
</svg>
