<svg width="36" height="40" viewBox="0 0 36 40" fill="none" xmlns="http://www.w3.org/2000/svg">
<path d="M35.6966 22.7636L32.5521 11.3716C31.6304 8.0342 29.6273 5.10279 26.8612 3.04333C24.095 0.983871 20.7246 -0.0854507 17.2856 0.0053391C13.8467 0.0961289 10.5365 1.34182 7.88137 3.5444C5.2262 5.74699 3.37839 8.78006 2.63166 12.1615L0.197178 23.1852C-0.0717313 24.4033 -0.065514 25.6667 0.215371 26.882C0.496256 28.0974 1.04464 29.2337 1.82002 30.207C2.59541 31.1804 3.57801 31.966 4.69527 32.5058C5.81254 33.0456 7.03594 33.3258 8.27515 33.3257H10.1188C10.4986 35.2093 11.5135 36.9028 12.9914 38.1192C14.4693 39.3355 16.3194 40 18.2282 40C20.137 40 21.9871 39.3355 23.465 38.1192C24.9429 36.9028 25.9578 35.2093 26.3376 33.3257H27.7245C29.0002 33.3258 30.2586 33.0289 31.4015 32.4582C32.5443 31.8875 33.5407 31.0585 34.3127 30.0359C35.0847 29.0133 35.6115 27.8248 35.8518 26.5632C36.0922 25.3017 36.0379 24.0013 35.6966 22.7636ZM18.2282 36.6587C17.205 36.6544 16.2081 36.3319 15.3739 35.7353C14.5396 35.1387 13.9088 34.2971 13.5678 33.3257H22.8886C22.5476 34.2971 21.9168 35.1387 21.0826 35.7353C20.2483 36.3319 19.2514 36.6544 18.2282 36.6587ZM31.6766 28.018C31.2154 28.6341 30.6179 29.1333 29.9316 29.4761C29.2453 29.8189 28.489 29.9958 27.7229 29.9928H8.27515C7.53171 29.9927 6.79778 29.8244 6.12755 29.5005C5.45731 29.1765 4.86788 28.7052 4.40276 28.1212C3.93763 27.5372 3.60869 26.8554 3.44022 26.1263C3.27174 25.3972 3.26803 24.6393 3.42936 23.9085L5.86218 12.8831C6.44863 10.2271 7.89998 7.84467 9.9855 6.11461C12.071 4.38455 14.671 3.40612 17.3722 3.33487C20.0734 3.26362 22.7207 4.10362 24.8933 5.72135C27.066 7.33909 28.6392 9.6417 29.3629 12.2632L32.5074 23.6552C32.7152 24.3974 32.7483 25.1781 32.6041 25.9355C32.4598 26.6928 32.1423 27.4058 31.6766 28.018Z" fill="#F95F5F"/>
</svg>
