<svg width="18" height="18" viewBox="0 0 18 18" fill="none" xmlns="http://www.w3.org/2000/svg">
<path d="M5.09091 0H2.90909C2.13755 0 1.39761 0.306493 0.852053 0.852053C0.306493 1.39761 0 2.13755 0 2.90909L0 5.09091C0 5.86245 0.306493 6.60239 0.852053 7.14795C1.39761 7.69351 2.13755 8 2.90909 8H5.09091C5.86245 8 6.60239 7.69351 7.14795 7.14795C7.69351 6.60239 8 5.86245 8 5.09091V2.90909C8 2.13755 7.69351 1.39761 7.14795 0.852053C6.60239 0.306493 5.86245 0 5.09091 0ZM6.54545 5.09091C6.54545 5.47668 6.39221 5.84665 6.11943 6.11943C5.84665 6.39221 5.47668 6.54545 5.09091 6.54545H2.90909C2.52332 6.54545 2.15335 6.39221 1.88057 6.11943C1.60779 5.84665 1.45455 5.47668 1.45455 5.09091V2.90909C1.45455 2.52332 1.60779 2.15335 1.88057 1.88057C2.15335 1.60779 2.52332 1.45455 2.90909 1.45455H5.09091C5.47668 1.45455 5.84665 1.60779 6.11943 1.88057C6.39221 2.15335 6.54545 2.52332 6.54545 2.90909V5.09091Z" fill="#585858"/>
<path d="M5.09091 10H2.90909C2.13755 10 1.39761 10.3065 0.852053 10.8521C0.306493 11.3976 0 12.1376 0 12.9091L0 15.0909C0 15.8624 0.306493 16.6024 0.852053 17.1479C1.39761 17.6935 2.13755 18 2.90909 18H5.09091C5.86245 18 6.60239 17.6935 7.14795 17.1479C7.69351 16.6024 8 15.8624 8 15.0909V12.9091C8 12.1376 7.69351 11.3976 7.14795 10.8521C6.60239 10.3065 5.86245 10 5.09091 10ZM6.54545 15.0909C6.54545 15.4767 6.39221 15.8466 6.11943 16.1194C5.84665 16.3922 5.47668 16.5455 5.09091 16.5455H2.90909C2.52332 16.5455 2.15335 16.3922 1.88057 16.1194C1.60779 15.8466 1.45455 15.4767 1.45455 15.0909V12.9091C1.45455 12.5233 1.60779 12.1534 1.88057 11.8806C2.15335 11.6078 2.52332 11.4545 2.90909 11.4545H5.09091C5.47668 11.4545 5.84665 11.6078 6.11943 11.8806C6.39221 12.1534 6.54545 12.5233 6.54545 12.9091V15.0909Z" fill="#585858"/>
<path d="M15.0909 10H12.9091C12.1376 10 11.3976 10.3065 10.8521 10.8521C10.3065 11.3976 10 12.1376 10 12.9091V15.0909C10 15.8624 10.3065 16.6024 10.8521 17.1479C11.3976 17.6935 12.1376 18 12.9091 18H15.0909C15.8624 18 16.6024 17.6935 17.1479 17.1479C17.6935 16.6024 18 15.8624 18 15.0909V12.9091C18 12.1376 17.6935 11.3976 17.1479 10.8521C16.6024 10.3065 15.8624 10 15.0909 10ZM16.5455 15.0909C16.5455 15.4767 16.3922 15.8466 16.1194 16.1194C15.8466 16.3922 15.4767 16.5455 15.0909 16.5455H12.9091C12.5233 16.5455 12.1534 16.3922 11.8806 16.1194C11.6078 15.8466 11.4545 15.4767 11.4545 15.0909V12.9091C11.4545 12.5233 11.6078 12.1534 11.8806 11.8806C12.1534 11.6078 12.5233 11.4545 12.9091 11.4545H15.0909C15.4767 11.4545 15.8466 11.6078 16.1194 11.8806C16.3922 12.1534 16.5455 12.5233 16.5455 12.9091V15.0909Z" fill="#585858"/>
<path d="M10.7 5.2H12.8V7.3C12.8 7.48565 12.8737 7.6637 13.005 7.79497C13.1363 7.92625 13.3143 8 13.5 8C13.6857 8 13.8637 7.92625 13.995 7.79497C14.1263 7.6637 14.2 7.48565 14.2 7.3V5.2H16.3C16.4857 5.2 16.6637 5.12625 16.795 4.99497C16.9263 4.8637 17 4.68565 17 4.5C17 4.31435 16.9263 4.1363 16.795 4.00503C16.6637 3.87375 16.4857 3.8 16.3 3.8H14.2V1.7C14.2 1.51435 14.1263 1.3363 13.995 1.20503C13.8637 1.07375 13.6857 1 13.5 1C13.3143 1 13.1363 1.07375 13.005 1.20503C12.8737 1.3363 12.8 1.51435 12.8 1.7V3.8H10.7C10.5143 3.8 10.3363 3.87375 10.205 4.00503C10.0737 4.1363 10 4.31435 10 4.5C10 4.68565 10.0737 4.8637 10.205 4.99497C10.3363 5.12625 10.5143 5.2 10.7 5.2Z" fill="#585858"/>
</svg>
