<svg width="27" height="27" viewBox="0 0 27 27" fill="none" xmlns="http://www.w3.org/2000/svg">
<circle cx="13.5" cy="13.5" r="13.5" fill="#2F81FF"/>
<path d="M18.0833 12.5833H14.4167V8.91667C14.4167 8.67355 14.3201 8.44039 14.1482 8.26849C13.9763 8.09658 13.7431 8 13.5 8C13.2569 8 13.0237 8.09658 12.8518 8.26849C12.6799 8.44039 12.5833 8.67355 12.5833 8.91667V12.5833H8.91667C8.67355 12.5833 8.44039 12.6799 8.26849 12.8518C8.09658 13.0237 8 13.2569 8 13.5C8 13.7431 8.09658 13.9763 8.26849 14.1482C8.44039 14.3201 8.67355 14.4167 8.91667 14.4167H12.5833V18.0833C12.5833 18.3264 12.6799 18.5596 12.8518 18.7315C13.0237 18.9034 13.2569 19 13.5 19C13.7431 19 13.9763 18.9034 14.1482 18.7315C14.3201 18.5596 14.4167 18.3264 14.4167 18.0833V14.4167H18.0833C18.3264 14.4167 18.5596 14.3201 18.7315 14.1482C18.9034 13.9763 19 13.7431 19 13.5C19 13.2569 18.9034 13.0237 18.7315 12.8518C18.5596 12.6799 18.3264 12.5833 18.0833 12.5833Z" fill="white"/>
</svg>
