<svg width="20" height="20" viewBox="0 0 20 20" fill="none" xmlns="http://www.w3.org/2000/svg">
<path d="M19.7591 18.5768L14.7849 13.6027C16.1404 11.9448 16.8069 9.82941 16.6464 7.69397C16.486 5.55852 15.5109 3.56644 13.9229 2.12976C12.3349 0.693089 10.2554 -0.0782598 8.1146 -0.0247333C5.97381 0.0287933 3.93549 0.9031 2.42125 2.41734C0.907006 3.93158 0.0326995 5.96991 -0.020827 8.1107C-0.0743535 10.2515 0.696995 12.331 2.13367 13.919C3.57035 15.507 5.56243 16.4821 7.69787 16.6425C9.83331 16.803 11.9487 16.1365 13.6066 14.781L18.5807 19.7552C18.7379 19.907 18.9484 19.991 19.1669 19.9891C19.3854 19.9872 19.5944 19.8995 19.7489 19.745C19.9034 19.5905 19.9911 19.3815 19.993 19.163C19.9949 18.9445 19.9109 18.734 19.7591 18.5768ZM8.33657 14.9993C7.01803 14.9993 5.7291 14.6083 4.63277 13.8758C3.53644 13.1433 2.68196 12.1021 2.17737 10.8839C1.67279 9.66571 1.54077 8.32527 1.798 7.03206C2.05524 5.73885 2.69017 4.55097 3.62252 3.61862C4.55487 2.68627 5.74276 2.05133 7.03597 1.79409C8.32917 1.53686 9.66962 1.66888 10.8878 2.17347C12.106 2.67805 13.1472 3.53253 13.8797 4.62886C14.6122 5.72519 15.0032 7.01412 15.0032 8.33266C15.0013 10.1002 14.2982 11.7947 13.0484 13.0445C11.7986 14.2943 10.1041 14.9973 8.33657 14.9993Z" fill="#585858"/>
</svg>
