<svg width="18" height="18" viewBox="0 0 18 18" fill="none" xmlns="http://www.w3.org/2000/svg">
<path d="M17.3395 0.661069C17.0706 0.388908 16.736 0.190699 16.3681 0.0855921C16.0002 -0.0195146 15.6114 -0.0279661 15.2393 0.0610542L3.23767 2.58862C2.54651 2.68339 1.89554 2.96923 1.35807 3.41395C0.820605 3.85866 0.417983 4.44458 0.195551 5.10573C-0.0268824 5.76688 -0.0602915 6.47699 0.0990857 7.15609C0.258463 7.8352 0.604296 8.45633 1.09764 8.94952L2.38631 10.2373C2.45606 10.307 2.51137 10.3898 2.54908 10.4809C2.58679 10.572 2.60617 10.6697 2.60609 10.7683V13.1444C2.60774 13.4785 2.68466 13.8079 2.83112 14.1082L2.82512 14.1134L2.84462 14.1329C3.06441 14.5748 3.42338 14.9321 3.86625 15.1499L3.88576 15.1694L3.89101 15.1634C4.19132 15.3099 4.52077 15.3868 4.85489 15.3884H7.2312C7.43001 15.3883 7.62076 15.467 7.76152 15.6074L9.04944 16.8952C9.39488 17.2444 9.80603 17.5219 10.2592 17.7115C10.7123 17.9011 11.1986 17.9991 11.6898 18C12.0992 17.9995 12.5057 17.9326 12.8937 17.802C13.5489 17.5869 14.1309 17.193 14.5741 16.6648C15.0173 16.1365 15.3041 15.4949 15.402 14.8124L17.9336 2.78587C18.0273 2.41059 18.0217 2.01742 17.9176 1.64492C17.8134 1.27241 17.6142 0.933378 17.3395 0.661069ZM3.44845 9.17828L2.15903 7.8905C1.85878 7.59751 1.64834 7.22497 1.55241 6.81659C1.45649 6.40821 1.47905 5.98095 1.61746 5.58494C1.75165 5.17867 1.99971 4.81949 2.33215 4.55011C2.66459 4.28073 3.06741 4.11249 3.49271 4.0654L15.375 1.56409L4.10479 12.8346V10.7683C4.10592 10.4731 4.0485 10.1805 3.93584 9.90759C3.82318 9.63467 3.65753 9.38678 3.44845 9.17828ZM13.9281 14.5559C13.8705 14.9702 13.6986 15.3602 13.4316 15.6822C13.1646 16.0042 12.8132 16.2454 12.4167 16.3787C12.0203 16.5121 11.5945 16.5323 11.1872 16.4371C10.7799 16.342 10.4071 16.1352 10.1108 15.8399L8.82066 14.5499C8.61241 14.3405 8.36471 14.1745 8.09188 14.0615C7.81905 13.9485 7.52652 13.8907 7.2312 13.8914H5.16468L16.4364 2.62462L13.9281 14.5559Z" fill="#585858"/>
</svg>
