<svg width="15" height="16" viewBox="0 0 15 16" fill="none" xmlns="http://www.w3.org/2000/svg">
<path d="M14.6767 12.756L14.0468 12.3813C14.1542 12.05 14.2266 11.702 14.2266 11.3333C14.2266 10.9647 14.1548 10.6167 14.0468 10.2853L14.6767 9.91067C14.9858 9.72667 15.0918 9.31867 14.9133 9C14.7349 8.68133 14.3397 8.57133 14.03 8.756L13.4008 9.13067C12.9449 8.60133 12.3377 8.214 11.6399 8.068V7.334C11.6399 6.966 11.3502 6.66733 10.9933 6.66733C10.6363 6.66733 10.3466 6.966 10.3466 7.334V8.068C9.64885 8.21467 9.04164 8.602 8.58574 9.13067L7.95654 8.756C7.64614 8.57133 7.25167 8.682 7.0732 9C6.89472 9.31933 7.00077 9.72667 7.30987 9.91067L7.93972 10.2853C7.83238 10.6167 7.75995 10.9647 7.75995 11.3333C7.75995 11.702 7.83173 12.05 7.93972 12.3813L7.30987 12.756C7.00077 12.94 6.89472 13.348 7.0732 13.6667C7.25297 13.988 7.65261 14.0927 7.95654 13.9107L8.58574 13.536C9.04164 14.0653 9.64885 14.4527 10.3466 14.5987V15.3327C10.3466 15.7013 10.6363 15.9993 10.9933 15.9993C11.3502 15.9993 11.6399 15.7013 11.6399 15.3327V14.5987C12.3377 14.452 12.9449 14.0647 13.4008 13.536L14.03 13.9107C14.3339 14.0927 14.7336 13.988 14.9133 13.6667C15.0918 13.3473 14.9858 12.94 14.6767 12.756ZM10.9933 13.3333C9.92369 13.3333 9.05328 12.436 9.05328 11.3333C9.05328 10.2307 9.92369 9.33333 10.9933 9.33333C12.0628 9.33333 12.9333 10.2307 12.9333 11.3333C12.9333 12.436 12.0628 13.3333 10.9933 13.3333ZM6.41101 14.626C6.11549 14.652 5.80962 14.6667 5.49663 14.6667C2.77677 14.6667 1.29333 13.6913 1.29333 13.1907V11.6387C2.21547 12.2293 3.56634 12.6107 5.15325 12.6613H5.1733C5.52121 12.6613 5.80832 12.376 5.81932 12.0147C5.83031 11.6467 5.54966 11.3393 5.1927 11.328C2.77677 11.252 1.29268 10.3093 1.29268 9.66667V8.30533C2.21482 8.896 3.5657 9.27733 5.15261 9.328H5.17265C5.52056 9.328 5.80768 9.04267 5.81867 8.68133C5.82966 8.31333 5.54901 8.006 5.19205 7.99467C2.77612 7.918 1.29203 6.97533 1.29203 6.33267V4.972C2.28466 5.608 3.77198 5.99933 5.49534 5.99933C7.2187 5.99933 8.70602 5.60733 9.69865 4.972V4.99933C9.69865 5.36733 9.98835 5.666 10.3453 5.666C10.7023 5.666 10.992 5.36733 10.992 4.99933V2.99933C10.9933 1.29 8.63036 0 5.49663 0C2.36291 0 0 1.29 0 3V13.1907C0 15.0353 2.76513 16 5.49663 16C5.83936 16 6.18468 15.9853 6.52224 15.9547C6.8779 15.9227 7.14174 15.6 7.1107 15.2333C7.07966 14.866 6.76797 14.5867 6.41037 14.6267L6.41101 14.626ZM5.49663 1.33333C8.06259 1.33333 9.69994 2.32 9.69994 3C9.69994 3.68 8.06259 4.66667 5.49663 4.66667C2.93068 4.66667 1.29333 3.68 1.29333 3C1.29333 2.32 2.93068 1.33333 5.49663 1.33333Z" fill="#2F81FF"/>
</svg>
