<svg width="32" height="40" viewBox="0 0 32 40" fill="none" xmlns="http://www.w3.org/2000/svg">
<path d="M21.1312 23.6783L18.2624 26.6667L21.1312 29.655C21.284 29.8088 21.4059 29.9927 21.4897 30.196C21.5736 30.3993 21.6177 30.618 21.6196 30.8393C21.6214 31.0606 21.5809 31.2801 21.5005 31.4849C21.42 31.6898 21.3012 31.8758 21.151 32.0323C21.0008 32.1888 20.8221 32.3126 20.6255 32.3964C20.4289 32.4802 20.2182 32.5223 20.0057 32.5204C19.7933 32.5185 19.5833 32.4725 19.3881 32.3852C19.1929 32.2978 19.0164 32.1709 18.8688 32.0117L16 29.0233L13.1312 32.0117C12.8294 32.3153 12.4253 32.4833 12.0057 32.4795C11.5862 32.4757 11.1849 32.3004 10.8883 31.9914C10.5916 31.6824 10.4234 31.2643 10.4197 30.8273C10.4161 30.3903 10.5773 29.9693 10.8688 29.655L13.7376 26.6667L10.8688 23.6783C10.5773 23.364 10.4161 22.943 10.4197 22.506C10.4234 22.069 10.5916 21.651 10.8883 21.342C11.1849 21.033 11.5862 20.8577 12.0057 20.8539C12.4253 20.8501 12.8294 21.0181 13.1312 21.3217L16 24.31L18.8688 21.3217C19.1705 21.0181 19.5747 20.8501 19.9942 20.8539C20.4137 20.8577 20.815 21.033 21.1117 21.342C21.4083 21.651 21.5766 22.069 21.5803 22.506C21.5839 22.943 21.4226 23.364 21.1312 23.6783ZM32 17.475V31.6667C31.9974 33.876 31.1538 35.9941 29.654 37.5563C28.1543 39.1185 26.1209 39.9974 24 40H7.99999C5.87904 39.9974 3.84569 39.1185 2.34595 37.5563C0.84621 35.9941 0.00254057 33.876 0 31.6667V8.33336C0.00254057 6.12404 0.84621 4.00596 2.34595 2.44374C3.84569 0.881507 5.87904 0.00268484 7.99999 3.84144e-05H15.224C16.6954 -0.00390646 18.1529 0.296018 19.5123 0.88247C20.8718 1.46892 22.1061 2.33027 23.144 3.4167L28.7184 9.2267C29.7619 10.3071 30.5893 11.5925 31.1526 13.0083C31.7159 14.4242 32.0039 15.9424 32 17.475ZM20.8816 5.77337C20.378 5.2653 19.8127 4.82824 19.2 4.47337V11.6667C19.2 12.1087 19.3685 12.5326 19.6686 12.8452C19.9687 13.1578 20.3756 13.3334 20.8 13.3334H27.7056C27.3647 12.6953 26.9445 12.1069 26.456 11.5834L20.8816 5.77337ZM28.8 17.475C28.8 17.2 28.7488 16.9367 28.7248 16.6667H20.8C19.5269 16.6667 18.306 16.1399 17.4059 15.2022C16.5057 14.2645 16 12.9928 16 11.6667V3.4117C15.7408 3.3867 15.4864 3.33337 15.224 3.33337H7.99999C6.72695 3.33337 5.50606 3.86015 4.60588 4.79783C3.70571 5.73551 3.2 7.00728 3.2 8.33336V31.6667C3.2 32.9928 3.70571 34.2645 4.60588 35.2022C5.50606 36.1399 6.72695 36.6667 7.99999 36.6667H24C25.273 36.6667 26.4939 36.1399 27.3941 35.2022C28.2943 34.2645 28.8 32.9928 28.8 31.6667V17.475Z" fill="#F1B816"/>
</svg>
