<svg width="21" height="21" viewBox="0 0 21 21" fill="none" xmlns="http://www.w3.org/2000/svg">
<path d="M10.3457 1.66685C11.4937 1.67047 12.6295 1.89329 13.6875 2.3224C14.7455 2.75151 15.7046 3.37839 16.5093 4.16677H13.8074C13.5779 4.16677 13.3577 4.25457 13.1954 4.41084C13.0331 4.56712 12.942 4.77907 12.942 5.00008C12.942 5.22109 13.0331 5.43304 13.1954 5.58932C13.3577 5.7456 13.5779 5.83339 13.8074 5.83339H17.3929C17.819 5.83317 18.2277 5.67006 18.529 5.37991C18.8304 5.08975 18.9998 4.69628 19 4.28594V0.833539C19 0.612531 18.9088 0.400576 18.7465 0.2443C18.5842 0.0880248 18.3641 0.000229963 18.1346 0.000229963C17.905 0.000229963 17.6849 0.0880248 17.5226 0.2443C17.3603 0.400576 17.2691 0.612531 17.2691 0.833539V2.56515C15.8387 1.32473 14.0779 0.492223 12.1839 0.160849C10.2899 -0.170525 8.33753 0.0123229 6.54535 0.688916C4.75318 1.36551 3.192 2.50913 2.03664 3.99171C0.881281 5.4743 0.177367 7.2373 0.00372488 9.08329C-0.0074536 9.19934 0.00659447 9.31635 0.044974 9.42688C0.0833535 9.53741 0.145223 9.63903 0.22664 9.72526C0.308057 9.8115 0.407237 9.88046 0.51786 9.92775C0.628483 9.97504 0.748124 9.99962 0.869159 9.99993C1.08083 10.0025 1.28589 9.92897 1.4442 9.79364C1.60251 9.65832 1.70267 9.47098 1.72507 9.26829C1.91773 7.19397 2.90896 5.26399 4.50405 3.85748C6.09914 2.45097 8.18278 1.66959 10.3457 1.66685Z" fill="white"/>
<path d="M20.086 10.0001C19.8632 9.99722 19.6473 10.0781 19.4807 10.227C19.3141 10.3758 19.2086 10.5819 19.185 10.8049C19.0345 12.5495 18.3897 14.214 17.3272 15.6009C16.2648 16.9879 14.8292 18.0391 13.1909 18.6298C11.5526 19.2206 9.78023 19.326 8.08412 18.9337C6.38801 18.5414 4.83933 17.6678 3.62181 16.4165H6.4659C6.70751 16.4165 6.93922 16.32 7.11006 16.1481C7.2809 15.9762 7.37688 15.743 7.37688 15.4999C7.37688 15.2568 7.2809 15.0237 7.11006 14.8517C6.93922 14.6798 6.70751 14.5833 6.4659 14.5833H2.6917C2.46951 14.5831 2.24947 14.6271 2.04417 14.7126C1.83887 14.7981 1.65233 14.9235 1.49522 15.0816C1.33811 15.2397 1.2135 15.4274 1.12853 15.6339C1.04356 15.8405 0.99988 16.0619 1 16.2855V20.0831C1 20.3262 1.09598 20.5594 1.26682 20.7313C1.43766 20.9032 1.66938 20.9997 1.91098 20.9997C2.15259 20.9997 2.3843 20.9032 2.55515 20.7313C2.72599 20.5594 2.82197 20.3262 2.82197 20.0831V18.1783C4.32767 19.5428 6.18114 20.4586 8.17481 20.8231C10.1685 21.1876 12.2237 20.9864 14.1102 20.2422C15.9967 19.4979 17.64 18.24 18.8562 16.6091C20.0723 14.9783 20.8133 13.039 20.9961 11.0084C21.0078 10.8807 20.9931 10.752 20.9527 10.6304C20.9123 10.5088 20.8471 10.3971 20.7614 10.3022C20.6757 10.2074 20.5713 10.1315 20.4549 10.0795C20.3384 10.0275 20.2134 10.0004 20.086 10.0001Z" fill="white"/>
</svg>
