<svg width="49" height="49" viewBox="0 0 49 49" fill="none" xmlns="http://www.w3.org/2000/svg">
<circle cx="24.5" cy="24.5" r="24.5" fill="#F5F5F5"/>
<path d="M25 24C26.1867 24 27.3467 23.6481 28.3334 22.9888C29.3201 22.3295 30.0891 21.3925 30.5433 20.2961C30.9974 19.1997 31.1162 17.9933 30.8847 16.8295C30.6532 15.6656 30.0818 14.5965 29.2426 13.7574C28.4035 12.9182 27.3344 12.3468 26.1705 12.1153C25.0067 11.8838 23.8003 12.0026 22.7039 12.4567C21.6075 12.9109 20.6705 13.6799 20.0112 14.6666C19.3519 15.6533 19 16.8133 19 18C19.0016 19.5908 19.6342 21.116 20.7591 22.2409C21.884 23.3658 23.4092 23.9984 25 24ZM25 14C25.7911 14 26.5645 14.2346 27.2223 14.6741C27.8801 15.1136 28.3928 15.7384 28.6955 16.4693C28.9983 17.2002 29.0775 18.0044 28.9231 18.7804C28.7688 19.5563 28.3878 20.269 27.8284 20.8284C27.269 21.3878 26.5563 21.7688 25.7804 21.9231C25.0044 22.0775 24.2002 21.9983 23.4693 21.6955C22.7384 21.3928 22.1136 20.8801 21.6741 20.2223C21.2346 19.5645 21 18.7911 21 18C21 16.9391 21.4214 15.9217 22.1716 15.1716C22.9217 14.4214 23.9391 14 25 14Z" fill="black"/>
<path d="M25 26C22.6139 26.0026 20.3262 26.9517 18.639 28.639C16.9517 30.3262 16.0026 32.6139 16 35C16 35.2652 16.1054 35.5196 16.2929 35.7071C16.4804 35.8946 16.7348 36 17 36C17.2652 36 17.5196 35.8946 17.7071 35.7071C17.8946 35.5196 18 35.2652 18 35C18 33.1435 18.7375 31.363 20.0503 30.0503C21.363 28.7375 23.1435 28 25 28C26.8565 28 28.637 28.7375 29.9497 30.0503C31.2625 31.363 32 33.1435 32 35C32 35.2652 32.1054 35.5196 32.2929 35.7071C32.4804 35.8946 32.7348 36 33 36C33.2652 36 33.5196 35.8946 33.7071 35.7071C33.8946 35.5196 34 35.2652 34 35C33.9974 32.6139 33.0483 30.3262 31.361 28.639C29.6738 26.9517 27.3861 26.0026 25 26Z" fill="black"/>
</svg>
