<svg width="27" height="27" viewBox="0 0 27 27" fill="none" xmlns="http://www.w3.org/2000/svg">
<path d="M13.5 0C10.83 0 8.21987 0.791761 5.99981 2.27516C3.77974 3.75856 2.04941 5.86697 1.02763 8.33377C0.00584936 10.8006 -0.261496 13.515 0.259405 16.1337C0.780305 18.7525 2.06606 21.1579 3.95406 23.0459C5.84207 24.9339 8.24754 26.2197 10.8663 26.7406C13.485 27.2615 16.1994 26.9942 18.6662 25.9724C21.133 24.9506 23.2414 23.2203 24.7248 21.0002C26.2082 18.7801 27 16.17 27 13.5C26.9961 9.92076 25.5726 6.48924 23.0417 3.95833C20.5108 1.42743 17.0792 0.00387122 13.5 0ZM23.2279 7.875H19.6043C18.7931 5.99511 17.725 4.23685 16.4306 2.6505C19.2954 3.43004 21.7376 5.30715 23.2279 7.875ZM18.5625 13.5C18.5533 14.6454 18.3728 15.783 18.027 16.875H8.973C8.62724 15.783 8.44674 14.6454 8.4375 13.5C8.44674 12.3546 8.62724 11.217 8.973 10.125H18.027C18.3728 11.217 18.5533 12.3546 18.5625 13.5ZM9.87525 19.125H17.1248C16.1699 21.0102 14.9492 22.7484 13.5 24.2865C12.0503 22.7489 10.8295 21.0105 9.87525 19.125ZM9.87525 7.875C10.8301 5.98981 12.0508 4.25155 13.5 2.7135C14.9497 4.25112 16.1705 5.98945 17.1248 7.875H9.87525ZM10.575 2.6505C9.27862 4.23651 8.20866 5.99478 7.39575 7.875H3.77213C5.26372 5.30599 7.70812 3.42872 10.575 2.6505ZM2.76863 10.125H6.6375C6.34586 11.2265 6.19466 12.3605 6.1875 13.5C6.19466 14.6395 6.34586 15.7735 6.6375 16.875H2.76863C2.07714 14.6781 2.07714 12.3219 2.76863 10.125ZM3.77213 19.125H7.39575C8.20866 21.0052 9.27862 22.7635 10.575 24.3495C7.70812 23.5713 5.26372 21.694 3.77213 19.125ZM16.4306 24.3495C17.725 22.7632 18.7931 21.0049 19.6043 19.125H23.2279C21.7376 21.6928 19.2954 23.57 16.4306 24.3495ZM24.2314 16.875H20.3625C20.6542 15.7735 20.8053 14.6395 20.8125 13.5C20.8053 12.3605 20.6542 11.2265 20.3625 10.125H24.2291C24.9206 12.3219 24.9206 14.6781 24.2291 16.875H24.2314Z" fill="white"/>
</svg>
